PathFileType	4	(X/Y/Z)	E:\Qualisys_Data\Carbon_Farble_Plate\Data\Amateur_Runner\S14\T3\S14T3V22_c3d.trc
DataRate	CameraRate	NumFrames	NumMarkers	Units	OrigDataRate	OrigDataStartFrame	OrigNumFrames
200.000000	200.000000	4	39	mm	200.000000	37	302
Frame#	Time	LSHO			RSHO			LICST			RICST			LASIS			LHEEL			RASIS			LTROC			RTROC			SACR			LTH1			LSK4			LTH2			LTH3			RHM5			LSK2			LTH4			RTH1			LTOE			RTH2			RTH3			RTH4			LLEP			RLEP			LSK1			LSK3			RSK1			LHM5			RSK2			LFT1			RSK3			RSK4			LLME			RLME			RTOE			RHEEL			RFT1			RFT2			LFT2			
		X1	Y1	Z1	X2	Y2	Z2	X3	Y3	Z3	X4	Y4	Z4	X5	Y5	Z5	X6	Y6	Z6	X7	Y7	Z7	X8	Y8	Z8	X9	Y9	Z9	X10	Y10	Z10	X11	Y11	Z11	X12	Y12	Z12	X13	Y13	Z13	X14	Y14	Z14	X15	Y15	Z15	X16	Y16	Z16	X17	Y17	Z17	X18	Y18	Z18	X19	Y19	Z19	X20	Y20	Z20	X21	Y21	Z21	X22	Y22	Z22	X23	Y23	Z23	X24	Y24	Z24	X25	Y25	Z25	X26	Y26	Z26	X27	Y27	Z27	X28	Y28	Z28	X29	Y29	Z29	X30	Y30	Z30	X31	Y31	Z31	X32	Y32	Z32	X33	Y33	Z33	X34	Y34	Z34	X35	Y35	Z35	X36	Y36	Z36	X37	Y37	Z37	X38	Y38	Z38	X39	Y39	Z39	

38	0.185	-2202.10205078125	1402.29443359375	-480.3645629882812	-2154.654052734375	1388.049194335938	-177.0665588378906	-2254.1884765625	952.831787109375	-473.22607421875	-2220.918701171875	957.5330200195312	-190.5080718994141	-2206.86474609375	904.9863891601562	-450.1134338378906	-2516.284423828125	502.5477294921875	-358.5702514648438	-2191.8935546875	923.4110717773438	-214.4641265869141	-2333.015869140625	827.7517700195312	-484.2113342285156	-2333.813720703125	843.4366455078125	-157.8639526367188	-2374.623291015625	957.9595336914062	-333.0445861816406	-2165.1552734375	645.97265625	-508.5916748046875	-2315.926513671875	506.2229614257812	-447.40283203125	-2229.444580078125	609.8331298828125	-480.4866027832031	-2109.165283203125	561.473388671875	-495.2283935546875	-2322.892333984375	81.25265502929688	-186.958251953125	-2225.7490234375	521.3421020507812	-478.1228332519531	-2177.781982421875	528.3973999023438	-470.9961242675781	-2172.897216796875	632.043701171875	-160.9294738769531	-2491.980224609375	243.2226867675781	-398.5348510742188	-2253.120361328125	625.7503051757812	-157.0927429199219	-2161.855712890625	536.649658203125	-192.7283020019531	-2244.096923828125	526.4823608398438	-179.750244140625	-2144.960693359375	497.0225830078125	-493.0300598144531	-2211.8095703125	461.3859252929688	-186.9227600097656	-2213.4912109375	440.080322265625	-476.4111938476562	-2311.432373046875	428.4338684082031	-451.2891540527344	-2239.794189453125	338.887451171875	-192.3985595703125	-2516.176025390625	314.5328063964844	-453.305419921875	-2315.0458984375	378.6571655273438	-181.9409484863281	-2543.61962890625	485.9465637207031	-333.1089782714844	-2297.285400390625	253.8733367919922	-211.5071105957031	-2360.900146484375	295.8784790039062	-197.7842254638672	-2482.160888671875	453.0634765625	-421.9570617675781	-2432.7724609375	143.9796600341797	-224.6955871582031	-2248.58642578125	76.98695373535156	-254.6008148193359	-2500.790771484375	118.9681091308594	-280.7878723144531	-2493.2421875	86.6903305053711	-304.90576171875	-2508.783447265625	99.74790954589844	-255.6234130859375	-2545.965576171875	498.4948120117188	-385.5462646484375
39	0.19	-2185.5361328125	1405.079223632812	-480.7803649902344	-2133.4990234375	1390.866821289062	-179.3218536376953	-2236.849365234375	955.6416015625	-473.6286010742188	-2200.890380859375	959.9317016601562	-190.5374603271484	-2188.830322265625	907.48876953125	-450.7556762695312	-2489.10546875	494.1168518066406	-359.5696105957031	-2173.47021484375	924.1317138671876	-212.7720031738281	-2313.165771484375	830.2855834960938	-484.4104309082031	-2315.21142578125	846.0696411132812	-157.9398956298828	-2354.733154296875	960.6104125976562	-332.6827392578125	-2140.943115234375	651.3017578125	-508.1267395019531	-2288.037353515625	506.1294250488281	-447.3302917480469	-2204.457275390625	613.78173828125	-479.7144775390625	-2082.249267578125	568.6991577148438	-494.7163391113281	-2322.53125	81.49569702148438	-187.3018341064453	-2198.035888671875	524.2194213867188	-477.7732849121094	-2150.20947265625	532.4525146484375	-470.8822326660156	-2161.317626953125	630.4336547851562	-161.6715393066406	-2451.371337890625	235.8315124511719	-399.04296875	-2238.666259765625	627.6376953125	-156.6569213867188	-2151.987060546875	535.3358764648438	-193.2329406738281	-2234.19580078125	527.5986328125	-180.2395935058594	-2116.669677734375	503.3064880371094	-493.2217712402344	-2204.58642578125	462.03369140625	-186.7212066650391	-2181.830322265625	443.2528686523438	-476.0511169433594	-2279.970458984375	428.0480041503906	-451.3468017578125	-2235.37939453125	339.3091430664062	-192.8105926513672	-2480.4677734375	305.6332702636719	-454.1884460449219	-2310.01611328125	380.1590270996094	-182.7497100830078	-2514.5009765625	475.7677307128906	-333.8138732910156	-2293.564697265625	255.4538879394531	-211.6807556152344	-2357.59228515625	298.7282104492188	-198.3791046142578	-2451.6171875	445.0816955566406	-421.8801879882812	-2431.298583984375	146.8471221923828	-224.8861694335938	-2248.956298828125	76.62725830078125	-254.7594146728516	-2499.71337890625	121.7826538085938	-280.9171752929688	-2492.489990234375	89.97404479980469	-305.2353515625	-2507.718505859375	103.0319061279297	-255.8219909667969	-2518.277099609375	487.9834899902344	-386.3471069335938
40	0.195	-2168.923095703125	1408.047485351562	-480.9371337890625	-2111.747802734375	1393.693359375	-180.9618988037109	-2210.76171875	958.8970336914062	-470.6586608886719	-2180.514892578125	961.2876586914062	-190.0794982910156	-2164.9970703125	911.14794921875	-449.8594665527344	-2461.55615234375	484.7409973144531	-359.9739379882812	-2153.459228515625	925.2134399414062	-212.8539428710938	-2292.910400390625	833.4774169921875	-484.3935852050781	-2296.757080078125	848.7747192382812	-158.2120819091797	-2335.178955078125	963.4766845703124	-331.8680114746094	-2117.2412109375	657.2676391601562	-507.9519348144531	-2260.333740234375	505.1710205078125	-447.3726806640625	-2179.416259765625	618.2489624023438	-478.5482482910156	-2056.001953125	576.4830322265625	-494.0972290039062	-2321.78271484375	81.61685943603516	-187.4987182617188	-2176.981689453125	531.9213256835938	-484.6893615722656	-2122.26416015625	537.6451416015625	-469.8507995605469	-2149.54296875	629.5117797851562	-162.7369842529297	-2411.20361328125	228.7599487304688	-399.0537109375	-2226.214599609375	629.1499633789062	-157.0721740722656	-2142.776123046875	534.0517578125	-193.9789276123047	-2227.24072265625	529.1525268554688	-180.8164672851562	-2087.64599609375	509.2051391601562	-492.4357604980469	-2197.681640625	462.3673400878906	-185.5453643798828	-2151.9931640625	447.5717163085938	-475.7984924316406	-2248.7919921875	427.6302490234375	-450.9404296875	-2230.751708984375	340.1801147460938	-193.1589508056641	-2443.162353515625	297.0247802734375	-454.3446960449219	-2305.075439453125	382.4063110351562	-183.7538299560547	-2485.672607421875	465.2651672363281	-334.1783752441406	-2290.761474609375	256.8141479492188	-211.7567596435547	-2353.997314453125	301.6172180175781	-198.9950408935547	-2421.265380859375	437.2459106445312	-421.7325744628906	-2430.321044921875	150.5493927001953	-224.8429718017578	-2248.536376953125	76.18646240234375	-254.6962585449219	-2498.32568359375	126.5688323974609	-280.6331787109375	-2491.55712890625	93.87359619140624	-304.8896484375	-2506.27392578125	107.5876846313477	-255.8320922851562	-2490.245361328125	477.0687561035156	-386.5658569335938
41	0.2	-2151.7548828125	1411.233642578125	-481.3746032714844	-2089.72705078125	1396.98095703125	-181.909423828125	-2191.570068359375	961.388671875	-470.9241333007812	-2159.61669921875	964.8629150390624	-189.7476654052734	-2144.9658203125	913.8699340820312	-450.1303405761719	-2433.639404296875	474.6584167480469	-360.7115783691406	-2133.483642578125	927.5017700195312	-212.5267486572266	-2272.595458984375	836.7534790039062	-484.7915344238281	-2277.199462890625	851.8191528320312	-158.1931457519531	-2313.63671875	965.3517456054688	-330.59765625	-2093.66943359375	663.0611572265625	-507.2416381835938	-2233.101318359375	505.2401733398438	-448.0305786132812	-2154.740966796875	622.7780151367188	-477.2072143554688	-2030.2529296875	583.9346923828125	-493.6658630371094	-2320.9833984375	81.70292663574219	-187.5416259765625	-2149.80615234375	534.4899291992188	-484.2362976074219	-2095.641357421875	543.5579833984375	-469.1752014160156	-2136.5888671875	629.4328002929688	-163.2456207275391	-2371.848388671875	221.1102447509766	-398.5665893554688	-2213.68310546875	631.5067138671875	-157.5416564941406	-2132.99853515625	533.574951171875	-194.3982391357422	-2218.2109375	531.9375	-180.3529357910156	-2059.9501953125	515.2197875976562	-492.2929992675781	-2189.99853515625	463.7721252441406	-185.8098907470703	-2121.3759765625	450.7586669921875	-475.0495300292969	-2217.7041015625	427.4069213867188	-450.8670349121094	-2225.60888671875	341.4060974121094	-193.0482635498047	-2406.571044921875	286.7870788574219	-454.7508544921875	-2299.142333984375	384.8646240234375	-183.5892639160156	-2455.283935546875	453.8051147460938	-331.5294494628906	-2286.835693359375	259.2069396972656	-212.0988006591797	-2349.730224609375	305.2147521972656	-199.0545959472656	-2390.9921875	429.2220153808594	-422.6182250976562	-2427.689697265625	153.8921661376953	-224.8515014648438	-2248.27294921875	76.05072021484375	-254.7812652587891	-2496.19482421875	131.4789733886719	-280.2380676269531	-2489.984130859375	99.07044219970705	-305.4251403808594	-2504.48291015625	112.628173828125	-255.4185485839844	-2461.77978515625	465.6134643554688	-387.0707092285156
